<mxfile host="app.diagrams.net" agent="Mozilla/5.0 (X11; Linux x86_64) AppleWebKit/537.36 (KHTML, like Gecko) Chrome/136.0.0.0 Safari/537.36" version="27.2.0">
  <diagram name="第 1 页" id="SAa0V_dGnNZgj1_m1_-2">
    <mxGraphModel dx="240" dy="132" grid="1" gridSize="10" guides="1" tooltips="1" connect="1" arrows="1" fold="1" page="1" pageScale="1" pageWidth="827" pageHeight="1169" math="0" shadow="0">
      <root>
        <mxCell id="0" />
        <mxCell id="1" parent="0" />
        <mxCell id="fvM1HastjUOkJov-SWFb-30" value="" style="ellipse;whiteSpace=wrap;html=1;aspect=fixed;strokeColor=#B3B3B3;" vertex="1" parent="1">
          <mxGeometry x="418" y="298" width="4" height="4" as="geometry" />
        </mxCell>
        <mxCell id="uD_gBPKRbGf4DmkfQiqW-1" value="" style="rounded=0;whiteSpace=wrap;html=1;fillColor=none;" parent="1" vertex="1">
          <mxGeometry x="360" y="240" width="120" height="120" as="geometry" />
        </mxCell>
        <mxCell id="uD_gBPKRbGf4DmkfQiqW-4" value="" style="endArrow=none;html=1;rounded=0;exitX=0;exitY=0.5;exitDx=0;exitDy=0;entryX=1;entryY=0.5;entryDx=0;entryDy=0;" parent="1" edge="1">
          <mxGeometry width="50" height="50" relative="1" as="geometry">
            <mxPoint x="360" y="320" as="sourcePoint" />
            <mxPoint x="480" y="320" as="targetPoint" />
          </mxGeometry>
        </mxCell>
        <mxCell id="uD_gBPKRbGf4DmkfQiqW-6" value="" style="endArrow=none;html=1;rounded=0;labelPosition=center;verticalLabelPosition=middle;align=center;verticalAlign=middle;entryX=0.334;entryY=0.998;entryDx=0;entryDy=0;entryPerimeter=0;" parent="1" target="uD_gBPKRbGf4DmkfQiqW-1" edge="1">
          <mxGeometry width="50" height="50" relative="1" as="geometry">
            <mxPoint x="400" y="240" as="sourcePoint" />
            <mxPoint x="400" y="320" as="targetPoint" />
          </mxGeometry>
        </mxCell>
        <mxCell id="uD_gBPKRbGf4DmkfQiqW-9" value="" style="ellipse;whiteSpace=wrap;html=1;aspect=fixed;" parent="1" vertex="1">
          <mxGeometry x="418" y="298" width="4" height="4" as="geometry" />
        </mxCell>
        <mxCell id="uD_gBPKRbGf4DmkfQiqW-10" value="" style="endArrow=none;html=1;rounded=0;labelPosition=center;verticalLabelPosition=middle;align=center;verticalAlign=middle;entryX=0.666;entryY=1.002;entryDx=0;entryDy=0;entryPerimeter=0;" parent="1" target="uD_gBPKRbGf4DmkfQiqW-1" edge="1">
          <mxGeometry width="50" height="50" relative="1" as="geometry">
            <mxPoint x="440" y="240" as="sourcePoint" />
            <mxPoint x="440" y="320" as="targetPoint" />
          </mxGeometry>
        </mxCell>
        <mxCell id="uD_gBPKRbGf4DmkfQiqW-11" value="" style="endArrow=none;html=1;rounded=0;exitX=0;exitY=0.5;exitDx=0;exitDy=0;entryX=1;entryY=0.5;entryDx=0;entryDy=0;" parent="1" edge="1">
          <mxGeometry width="50" height="50" relative="1" as="geometry">
            <mxPoint x="360" y="280" as="sourcePoint" />
            <mxPoint x="480" y="280" as="targetPoint" />
          </mxGeometry>
        </mxCell>
        <mxCell id="fvM1HastjUOkJov-SWFb-2" value="" style="ellipse;whiteSpace=wrap;html=1;aspect=fixed;fillColor=none;strokeColor=#7EA6E0;" vertex="1" parent="1">
          <mxGeometry x="379" y="259" width="82" height="82" as="geometry" />
        </mxCell>
        <mxCell id="fvM1HastjUOkJov-SWFb-6" value="" style="ellipse;whiteSpace=wrap;html=1;aspect=fixed;strokeColor=#B3B3B3;" vertex="1" parent="1">
          <mxGeometry x="358" y="238" width="4" height="4" as="geometry" />
        </mxCell>
        <mxCell id="fvM1HastjUOkJov-SWFb-7" value="" style="ellipse;whiteSpace=wrap;html=1;aspect=fixed;strokeColor=#B3B3B3;" vertex="1" parent="1">
          <mxGeometry x="378" y="238" width="4" height="4" as="geometry" />
        </mxCell>
        <mxCell id="fvM1HastjUOkJov-SWFb-8" value="" style="ellipse;whiteSpace=wrap;html=1;aspect=fixed;strokeColor=#B3B3B3;" vertex="1" parent="1">
          <mxGeometry x="398" y="238" width="4" height="4" as="geometry" />
        </mxCell>
        <mxCell id="fvM1HastjUOkJov-SWFb-9" value="" style="ellipse;whiteSpace=wrap;html=1;aspect=fixed;strokeColor=#B3B3B3;" vertex="1" parent="1">
          <mxGeometry x="418" y="238" width="4" height="4" as="geometry" />
        </mxCell>
        <mxCell id="fvM1HastjUOkJov-SWFb-10" value="" style="ellipse;whiteSpace=wrap;html=1;aspect=fixed;strokeColor=#B3B3B3;" vertex="1" parent="1">
          <mxGeometry x="438" y="238" width="4" height="4" as="geometry" />
        </mxCell>
        <mxCell id="fvM1HastjUOkJov-SWFb-11" value="" style="ellipse;whiteSpace=wrap;html=1;aspect=fixed;strokeColor=#B3B3B3;" vertex="1" parent="1">
          <mxGeometry x="458" y="238" width="4" height="4" as="geometry" />
        </mxCell>
        <mxCell id="fvM1HastjUOkJov-SWFb-12" value="" style="ellipse;whiteSpace=wrap;html=1;aspect=fixed;strokeColor=#B3B3B3;" vertex="1" parent="1">
          <mxGeometry x="478" y="238" width="4" height="4" as="geometry" />
        </mxCell>
        <mxCell id="fvM1HastjUOkJov-SWFb-13" value="" style="ellipse;whiteSpace=wrap;html=1;aspect=fixed;strokeColor=#B3B3B3;" vertex="1" parent="1">
          <mxGeometry x="358" y="258" width="4" height="4" as="geometry" />
        </mxCell>
        <mxCell id="fvM1HastjUOkJov-SWFb-14" value="" style="ellipse;whiteSpace=wrap;html=1;aspect=fixed;strokeColor=#B3B3B3;" vertex="1" parent="1">
          <mxGeometry x="378" y="258" width="4" height="4" as="geometry" />
        </mxCell>
        <mxCell id="fvM1HastjUOkJov-SWFb-15" value="" style="ellipse;whiteSpace=wrap;html=1;aspect=fixed;strokeColor=#B3B3B3;" vertex="1" parent="1">
          <mxGeometry x="398" y="258" width="4" height="4" as="geometry" />
        </mxCell>
        <mxCell id="fvM1HastjUOkJov-SWFb-16" value="" style="ellipse;whiteSpace=wrap;html=1;aspect=fixed;strokeColor=#B3B3B3;" vertex="1" parent="1">
          <mxGeometry x="418" y="258" width="4" height="4" as="geometry" />
        </mxCell>
        <mxCell id="fvM1HastjUOkJov-SWFb-17" value="" style="ellipse;whiteSpace=wrap;html=1;aspect=fixed;strokeColor=#B3B3B3;" vertex="1" parent="1">
          <mxGeometry x="438" y="258" width="4" height="4" as="geometry" />
        </mxCell>
        <mxCell id="fvM1HastjUOkJov-SWFb-18" value="" style="ellipse;whiteSpace=wrap;html=1;aspect=fixed;strokeColor=#B3B3B3;" vertex="1" parent="1">
          <mxGeometry x="458" y="258" width="4" height="4" as="geometry" />
        </mxCell>
        <mxCell id="fvM1HastjUOkJov-SWFb-19" value="" style="ellipse;whiteSpace=wrap;html=1;aspect=fixed;strokeColor=#B3B3B3;" vertex="1" parent="1">
          <mxGeometry x="478" y="258" width="4" height="4" as="geometry" />
        </mxCell>
        <mxCell id="fvM1HastjUOkJov-SWFb-20" value="" style="ellipse;whiteSpace=wrap;html=1;aspect=fixed;strokeColor=#B3B3B3;" vertex="1" parent="1">
          <mxGeometry x="358" y="278" width="4" height="4" as="geometry" />
        </mxCell>
        <mxCell id="fvM1HastjUOkJov-SWFb-21" value="" style="ellipse;whiteSpace=wrap;html=1;aspect=fixed;strokeColor=#B3B3B3;" vertex="1" parent="1">
          <mxGeometry x="378" y="278" width="4" height="4" as="geometry" />
        </mxCell>
        <mxCell id="fvM1HastjUOkJov-SWFb-22" value="" style="ellipse;whiteSpace=wrap;html=1;aspect=fixed;strokeColor=#B3B3B3;" vertex="1" parent="1">
          <mxGeometry x="398" y="278" width="4" height="4" as="geometry" />
        </mxCell>
        <mxCell id="fvM1HastjUOkJov-SWFb-23" value="" style="ellipse;whiteSpace=wrap;html=1;aspect=fixed;strokeColor=#B3B3B3;" vertex="1" parent="1">
          <mxGeometry x="418" y="278" width="4" height="4" as="geometry" />
        </mxCell>
        <mxCell id="fvM1HastjUOkJov-SWFb-24" value="" style="ellipse;whiteSpace=wrap;html=1;aspect=fixed;strokeColor=#B3B3B3;" vertex="1" parent="1">
          <mxGeometry x="438" y="278" width="4" height="4" as="geometry" />
        </mxCell>
        <mxCell id="fvM1HastjUOkJov-SWFb-25" value="" style="ellipse;whiteSpace=wrap;html=1;aspect=fixed;strokeColor=#B3B3B3;" vertex="1" parent="1">
          <mxGeometry x="458" y="278" width="4" height="4" as="geometry" />
        </mxCell>
        <mxCell id="fvM1HastjUOkJov-SWFb-26" value="" style="ellipse;whiteSpace=wrap;html=1;aspect=fixed;strokeColor=#B3B3B3;" vertex="1" parent="1">
          <mxGeometry x="478" y="278" width="4" height="4" as="geometry" />
        </mxCell>
        <mxCell id="fvM1HastjUOkJov-SWFb-27" value="" style="ellipse;whiteSpace=wrap;html=1;aspect=fixed;strokeColor=#B3B3B3;" vertex="1" parent="1">
          <mxGeometry x="358" y="298" width="4" height="4" as="geometry" />
        </mxCell>
        <mxCell id="fvM1HastjUOkJov-SWFb-28" value="" style="ellipse;whiteSpace=wrap;html=1;aspect=fixed;strokeColor=#B3B3B3;" vertex="1" parent="1">
          <mxGeometry x="378" y="298" width="4" height="4" as="geometry" />
        </mxCell>
        <mxCell id="fvM1HastjUOkJov-SWFb-29" value="" style="ellipse;whiteSpace=wrap;html=1;aspect=fixed;strokeColor=#B3B3B3;" vertex="1" parent="1">
          <mxGeometry x="398" y="298" width="4" height="4" as="geometry" />
        </mxCell>
        <mxCell id="fvM1HastjUOkJov-SWFb-31" value="" style="ellipse;whiteSpace=wrap;html=1;aspect=fixed;strokeColor=#B3B3B3;" vertex="1" parent="1">
          <mxGeometry x="438" y="298" width="4" height="4" as="geometry" />
        </mxCell>
        <mxCell id="fvM1HastjUOkJov-SWFb-32" value="" style="ellipse;whiteSpace=wrap;html=1;aspect=fixed;strokeColor=#B3B3B3;" vertex="1" parent="1">
          <mxGeometry x="458" y="298" width="4" height="4" as="geometry" />
        </mxCell>
        <mxCell id="fvM1HastjUOkJov-SWFb-33" value="" style="ellipse;whiteSpace=wrap;html=1;aspect=fixed;strokeColor=#B3B3B3;" vertex="1" parent="1">
          <mxGeometry x="478" y="298" width="4" height="4" as="geometry" />
        </mxCell>
        <mxCell id="fvM1HastjUOkJov-SWFb-34" value="" style="ellipse;whiteSpace=wrap;html=1;aspect=fixed;strokeColor=#B3B3B3;" vertex="1" parent="1">
          <mxGeometry x="358" y="318" width="4" height="4" as="geometry" />
        </mxCell>
        <mxCell id="fvM1HastjUOkJov-SWFb-35" value="" style="ellipse;whiteSpace=wrap;html=1;aspect=fixed;strokeColor=#B3B3B3;" vertex="1" parent="1">
          <mxGeometry x="378" y="318" width="4" height="4" as="geometry" />
        </mxCell>
        <mxCell id="fvM1HastjUOkJov-SWFb-36" value="" style="ellipse;whiteSpace=wrap;html=1;aspect=fixed;strokeColor=#B3B3B3;" vertex="1" parent="1">
          <mxGeometry x="398" y="318" width="4" height="4" as="geometry" />
        </mxCell>
        <mxCell id="fvM1HastjUOkJov-SWFb-37" value="" style="ellipse;whiteSpace=wrap;html=1;aspect=fixed;strokeColor=#B3B3B3;" vertex="1" parent="1">
          <mxGeometry x="418" y="318" width="4" height="4" as="geometry" />
        </mxCell>
        <mxCell id="fvM1HastjUOkJov-SWFb-38" value="" style="ellipse;whiteSpace=wrap;html=1;aspect=fixed;strokeColor=#B3B3B3;" vertex="1" parent="1">
          <mxGeometry x="438" y="318" width="4" height="4" as="geometry" />
        </mxCell>
        <mxCell id="fvM1HastjUOkJov-SWFb-39" value="" style="ellipse;whiteSpace=wrap;html=1;aspect=fixed;strokeColor=#B3B3B3;" vertex="1" parent="1">
          <mxGeometry x="458" y="318" width="4" height="4" as="geometry" />
        </mxCell>
        <mxCell id="fvM1HastjUOkJov-SWFb-40" value="" style="ellipse;whiteSpace=wrap;html=1;aspect=fixed;strokeColor=#B3B3B3;" vertex="1" parent="1">
          <mxGeometry x="478" y="318" width="4" height="4" as="geometry" />
        </mxCell>
        <mxCell id="fvM1HastjUOkJov-SWFb-41" value="" style="ellipse;whiteSpace=wrap;html=1;aspect=fixed;strokeColor=#B3B3B3;" vertex="1" parent="1">
          <mxGeometry x="358" y="338" width="4" height="4" as="geometry" />
        </mxCell>
        <mxCell id="fvM1HastjUOkJov-SWFb-42" value="" style="ellipse;whiteSpace=wrap;html=1;aspect=fixed;strokeColor=#B3B3B3;" vertex="1" parent="1">
          <mxGeometry x="378" y="338" width="4" height="4" as="geometry" />
        </mxCell>
        <mxCell id="fvM1HastjUOkJov-SWFb-43" value="" style="ellipse;whiteSpace=wrap;html=1;aspect=fixed;strokeColor=#B3B3B3;" vertex="1" parent="1">
          <mxGeometry x="398" y="338" width="4" height="4" as="geometry" />
        </mxCell>
        <mxCell id="fvM1HastjUOkJov-SWFb-44" value="" style="ellipse;whiteSpace=wrap;html=1;aspect=fixed;strokeColor=#B3B3B3;" vertex="1" parent="1">
          <mxGeometry x="418" y="338" width="4" height="4" as="geometry" />
        </mxCell>
        <mxCell id="fvM1HastjUOkJov-SWFb-45" value="" style="ellipse;whiteSpace=wrap;html=1;aspect=fixed;strokeColor=#B3B3B3;" vertex="1" parent="1">
          <mxGeometry x="438" y="338" width="4" height="4" as="geometry" />
        </mxCell>
        <mxCell id="fvM1HastjUOkJov-SWFb-46" value="" style="ellipse;whiteSpace=wrap;html=1;aspect=fixed;strokeColor=#B3B3B3;" vertex="1" parent="1">
          <mxGeometry x="458" y="338" width="4" height="4" as="geometry" />
        </mxCell>
        <mxCell id="fvM1HastjUOkJov-SWFb-47" value="" style="ellipse;whiteSpace=wrap;html=1;aspect=fixed;strokeColor=#B3B3B3;" vertex="1" parent="1">
          <mxGeometry x="478" y="338" width="4" height="4" as="geometry" />
        </mxCell>
        <mxCell id="fvM1HastjUOkJov-SWFb-48" value="" style="ellipse;whiteSpace=wrap;html=1;aspect=fixed;strokeColor=#B3B3B3;" vertex="1" parent="1">
          <mxGeometry x="358" y="358" width="4" height="4" as="geometry" />
        </mxCell>
        <mxCell id="fvM1HastjUOkJov-SWFb-49" value="" style="ellipse;whiteSpace=wrap;html=1;aspect=fixed;strokeColor=#B3B3B3;" vertex="1" parent="1">
          <mxGeometry x="378" y="358" width="4" height="4" as="geometry" />
        </mxCell>
        <mxCell id="fvM1HastjUOkJov-SWFb-50" value="" style="ellipse;whiteSpace=wrap;html=1;aspect=fixed;strokeColor=#B3B3B3;" vertex="1" parent="1">
          <mxGeometry x="398" y="358" width="4" height="4" as="geometry" />
        </mxCell>
        <mxCell id="fvM1HastjUOkJov-SWFb-51" value="" style="ellipse;whiteSpace=wrap;html=1;aspect=fixed;strokeColor=#B3B3B3;" vertex="1" parent="1">
          <mxGeometry x="418" y="358" width="4" height="4" as="geometry" />
        </mxCell>
        <mxCell id="fvM1HastjUOkJov-SWFb-52" value="" style="ellipse;whiteSpace=wrap;html=1;aspect=fixed;strokeColor=#B3B3B3;" vertex="1" parent="1">
          <mxGeometry x="438" y="358" width="4" height="4" as="geometry" />
        </mxCell>
        <mxCell id="fvM1HastjUOkJov-SWFb-53" value="" style="ellipse;whiteSpace=wrap;html=1;aspect=fixed;strokeColor=#B3B3B3;" vertex="1" parent="1">
          <mxGeometry x="458" y="358" width="4" height="4" as="geometry" />
        </mxCell>
        <mxCell id="fvM1HastjUOkJov-SWFb-54" value="" style="ellipse;whiteSpace=wrap;html=1;aspect=fixed;strokeColor=#B3B3B3;" vertex="1" parent="1">
          <mxGeometry x="478" y="358" width="4" height="4" as="geometry" />
        </mxCell>
      </root>
    </mxGraphModel>
  </diagram>
</mxfile>
